<?xml version="1.0" encoding="utf-8"?>
<svg version="1.1" id="Layer_1" xmlns="http://www.w3.org/2000/svg" xmlns:xlink="http://www.w3.org/1999/xlink" x="0px" y="0px"
	 viewBox="95 0 673.4 238.9" style="enable-background:new 0 0 673.4 238.9;" xml:space="preserve">

<g>
	<g>
		<path d="M254.3,108.5l-4.9,28.1H223L237.2,56h38.1c11.6,0,19.8,1.4,24.8,4.1c5,2.8,7.4,7.2,7.4,13.2c0,1.6-0.2,3.5-0.6,5.6
			c-0.9,4.9-2.8,9-5.7,12.5c-2.9,3.5-6.7,5.9-11.4,7.2c3.9,1.5,6.6,3.1,8.3,4.7c1.6,1.6,2.5,4.5,2.5,8.6c0,2.2-0.3,4.9-0.9,8.1
			c-0.2,1-0.3,2-0.4,2.8c-0.8,4.6-1.2,7.5-1.2,8.6c0,1.8,0.7,2.7,2,2.7l-0.4,2.5h-26.8c0-0.1,0-0.4,0-0.8c-0.1-0.6-0.1-1.1-0.1-1.5
			c0-3,0.4-6.9,1.2-11.9c0.5-2.6,0.8-4.7,0.8-6.3c0-2.8-0.9-4.8-2.7-6c-1.8-1.2-5-1.7-9.7-1.7H254.3z M257.4,90.8h10.4
			c4.3,0,7.5-0.6,9.8-1.8c2.3-1.2,3.6-3.1,4.1-5.8c0-0.2,0-0.5,0.1-0.9c0.1-0.4,0.1-0.7,0.1-0.8c0-2.2-0.8-3.9-2.5-5
			c-1.7-1.1-4-1.7-6.9-1.7h-12.3L257.4,90.8z"/>
		<path d="M311.7,136.6L326,56h65.7l-3.4,18.8H349l-2,11.5h33.2l-3.2,18.8h-33.2l-2.2,12.6h40.9l-3.4,18.8H311.7z"/>
		<path d="M385.3,136.6L428.4,56h26.9l14.7,80.6h-26.3l-1.2-10.6h-26.3l-4.9,10.6H385.3z M437.3,80.3L424,109.2h16.7L437.3,80.3z"/>
		<path d="M538.1,86.8c0-0.3,0-0.6,0-0.9v-0.8c0-3.7-1-6.5-3.1-8.5c-2.1-2-5.1-3-9-3c-4.7,0-8.7,2-12,6c-3.3,4-5.7,9.8-7,17.5
			c-0.5,3.2-0.8,6-0.8,8.4c0,4.2,1,7.5,2.9,9.9c1.9,2.4,5.3,3.6,10,3.6c4,0,7.4-1.2,10-3.7c2.6-2.5,4.6-5.8,5.9-10h25.4
			c-3,10.4-8.5,18.5-16.4,24.5c-7.9,5.9-17.3,8.9-27.9,8.9c-11.5,0-20.4-2.9-26.7-8.7c-6.3-5.8-9.5-13.8-9.5-24
			c0-3.1,0.3-6.4,0.9-9.9c1.1-6.4,3.2-12.2,6.1-17.5c2.9-5.2,6.6-9.7,10.9-13.4c4.3-3.7,9.1-6.6,14.3-8.5c5.2-1.9,10.6-2.9,16.2-2.9
			c11.5,0,20.2,2.6,26.1,7.7c5.9,5.1,8.8,12.4,8.8,21.8c0,0.3,0,0.9-0.1,1.7c0,0.7,0,1.3,0,1.8H538.1z"/>
		<path d="M575.9,56h73.9l-3.7,21.2h-23.7l-10.5,59.4h-26.4L596,77.2h-23.7L575.9,56z"/>
	</g>
	<g>
		<g>
			<path d="M244.6,167.6c0-1.2-0.4-2-1.3-2.6c-0.8-0.5-1.8-0.7-3.1-0.7c-2.6,0-4.1,0.7-4.3,2.2c0,0.1,0,0.1,0,0.2l-0.1,0.2
				c0,0.9,0.5,1.5,1.6,2c1.1,0.5,2.8,1,5.1,1.6c2,0.5,3.6,1,4.8,1.4c1.2,0.4,2.5,1,3.7,1.7c1.2,0.7,2.2,1.6,2.9,2.8
				c0.7,1.1,1.1,2.5,1.1,4.1c0,0.6-0.1,1.3-0.2,2c-0.7,4.3-2.9,7.5-6.5,9.7c-3.6,2.2-8.1,3.3-13.4,3.3c-2.3,0-4.3-0.3-6.1-0.9
				c-1.8-0.6-3.4-1.4-4.6-2.4c-1.3-1-2.2-2.2-2.9-3.5c-0.7-1.3-1-2.8-1-4.4c0-0.5,0-0.9,0.1-1.5h11.9c0,1.3,0.5,2.3,1.5,3
				c0.9,0.6,2,0.9,3.4,0.9c1.6,0,2.9-0.2,3.9-0.7c1-0.5,1.6-1.2,1.7-2c0-0.1,0-0.1,0.1-0.2v-0.2c0-0.9-0.5-1.5-1.6-2
				c-1.1-0.5-2.7-1-5-1.6c-2-0.5-3.6-0.9-4.8-1.3c-1.3-0.4-2.5-1-3.7-1.7c-1.2-0.7-2.2-1.7-2.9-2.8c-0.7-1.2-1.1-2.6-1.1-4.3
				c0-0.7,0.1-1.4,0.2-2.2c0.7-3.9,2.7-6.9,6.1-9c3.4-2.1,7.5-3.1,12.4-3.1c2.5,0,4.6,0.3,6.4,0.9c1.8,0.6,3.3,1.4,4.4,2.5
				c1.1,1.1,1.9,2.3,2.5,3.8c0.5,1.5,0.8,3.1,0.8,4.9H244.6z"/>
			<path d="M262.7,156.6h34.7l-1.7,9.9h-11.1l-4.9,27.9h-12.4l4.9-27.9H261L262.7,156.6z"/>
			<path d="M328.5,156.9c2.1,0.8,3.9,2,5.3,3.4c1.4,1.4,2.4,3.1,3,5c0.7,1.9,1,3.9,1,6.1c0,1.3-0.1,2.6-0.4,4
				c-0.6,3.1-1.6,5.9-3,8.5c-1.4,2.5-3.2,4.6-5.3,6.4c-2.1,1.7-4.4,3-7,3.9c-2.6,0.9-5.3,1.3-8.1,1.3c-5.2,0-9.3-1.3-12.3-4
				c-3-2.7-4.4-6.5-4.4-11.4c0-1.5,0.2-3.1,0.5-4.8c0.5-2.9,1.4-5.6,2.8-8c1.4-2.4,3.1-4.5,5.2-6.2c2.1-1.7,4.4-3.1,7-4
				c2.6-0.9,5.3-1.4,8.2-1.4C323.8,155.6,326.3,156,328.5,156.9z M315.7,165.8c-1.1,0.6-2,1.4-2.7,2.4c-0.7,1-1.3,2.1-1.8,3.3
				c-0.5,1.2-0.8,2.5-1.1,3.8c-0.2,1.3-0.3,2.5-0.3,3.6c0,2.2,0.4,3.9,1.3,5.3c0.9,1.3,2.4,2,4.5,2c2.6,0,4.6-1,6.1-2.9
				c1.5-2,2.6-4.6,3.2-7.9c0.2-1.1,0.3-2.1,0.3-3.1c0-2.2-0.5-3.9-1.4-5.3c-1-1.4-2.5-2-4.6-2C317.9,164.9,316.7,165.2,315.7,165.8z
				"/>
			<path d="M354,181.3l-2.3,13.2h-12.4l6.7-37.8h17.9c5.4,0,9.3,0.6,11.6,1.9c2.3,1.3,3.5,3.4,3.5,6.2c0,0.8-0.1,1.6-0.3,2.6
				c-0.4,2.3-1.3,4.2-2.7,5.9c-1.4,1.6-3.1,2.8-5.3,3.4c1.8,0.7,3.1,1.4,3.9,2.2c0.8,0.8,1.2,2.1,1.2,4c0,1.1-0.1,2.3-0.4,3.8
				c-0.1,0.5-0.1,0.9-0.2,1.3c-0.4,2.2-0.6,3.5-0.6,4c0,0.8,0.3,1.3,0.9,1.3l-0.2,1.2h-12.6c0-0.1,0-0.2,0-0.4
				c0-0.3-0.1-0.5-0.1-0.7c0-1.4,0.2-3.3,0.6-5.6c0.2-1.2,0.4-2.2,0.4-2.9c0-1.3-0.4-2.3-1.3-2.8c-0.8-0.5-2.4-0.8-4.6-0.8H354z
				 M355.5,173h4.9c2,0,3.5-0.3,4.6-0.8c1.1-0.6,1.7-1.5,1.9-2.7c0-0.1,0-0.2,0.1-0.4c0-0.2,0.1-0.3,0.1-0.4c0-1.1-0.4-1.8-1.2-2.4
				c-0.8-0.5-1.9-0.8-3.2-0.8h-5.8L355.5,173z"/>
		</g>
		<g>
			<path d="M430.8,194.4l6.7-37.8h29.4l-1.6,8.8h-17l-1.2,6.9h13.6l-1.5,8.8h-13.6l-2.4,13.3H430.8z"/>
			<path d="M479.9,181.3l-2.3,13.2h-12.4l6.7-37.8h17.9c5.4,0,9.3,0.6,11.6,1.9c2.3,1.3,3.5,3.4,3.5,6.2c0,0.8-0.1,1.6-0.3,2.6
				c-0.4,2.3-1.3,4.2-2.7,5.9c-1.3,1.6-3.1,2.8-5.3,3.4c1.8,0.7,3.1,1.4,3.9,2.2c0.8,0.8,1.2,2.1,1.2,4c0,1.1-0.1,2.3-0.4,3.8
				c-0.1,0.5-0.1,0.9-0.2,1.3c-0.4,2.2-0.6,3.5-0.6,4c0,0.8,0.3,1.3,0.9,1.3l-0.2,1.2h-12.6c0-0.1,0-0.2,0-0.4
				c0-0.3-0.1-0.5-0.1-0.7c0-1.4,0.2-3.3,0.6-5.6c0.2-1.2,0.4-2.2,0.4-2.9c0-1.3-0.4-2.3-1.3-2.8c-0.8-0.5-2.4-0.8-4.6-0.8H479.9z
				 M481.4,173h4.9c2,0,3.5-0.3,4.6-0.8c1.1-0.6,1.7-1.5,1.9-2.7c0-0.1,0-0.2,0.1-0.4c0-0.2,0.1-0.3,0.1-0.4c0-1.1-0.4-1.8-1.2-2.4
				c-0.8-0.5-1.9-0.8-3.2-0.8h-5.8L481.4,173z"/>
			<path d="M539,156.9c2.1,0.8,3.9,2,5.3,3.4c1.4,1.4,2.4,3.1,3,5c0.7,1.9,1,3.9,1,6.1c0,1.3-0.1,2.6-0.4,4c-0.6,3.1-1.6,5.9-3,8.5
				c-1.4,2.5-3.2,4.6-5.3,6.4c-2.1,1.7-4.4,3-7,3.9c-2.6,0.9-5.3,1.3-8.1,1.3c-5.2,0-9.3-1.3-12.3-4c-3-2.7-4.4-6.5-4.4-11.4
				c0-1.5,0.2-3.1,0.5-4.8c0.5-2.9,1.4-5.6,2.8-8s3.1-4.5,5.2-6.2c2.1-1.7,4.4-3.1,7-4c2.6-0.9,5.3-1.4,8.2-1.4
				C534.4,155.6,536.9,156,539,156.9z M526.2,165.8c-1.1,0.6-2,1.4-2.7,2.4c-0.7,1-1.3,2.1-1.8,3.3c-0.5,1.2-0.8,2.5-1.1,3.8
				c-0.2,1.3-0.3,2.5-0.3,3.6c0,2.2,0.4,3.9,1.3,5.3s2.4,2,4.5,2c2.6,0,4.6-1,6.1-2.9c1.5-2,2.6-4.6,3.2-7.9
				c0.2-1.1,0.3-2.1,0.3-3.1c0-2.2-0.5-3.9-1.4-5.3c-1-1.4-2.5-2-4.6-2C528.5,164.9,527.3,165.2,526.2,165.8z"/>
			<path d="M578.4,177.3l1.1-8.6l2.1-12h11.9l-6.7,37.8h-11.6l-9.9-20.6l-1,8.6l-2.1,12h-11.9l6.7-37.8h11.6L578.4,177.3z"/>
			<path d="M598.7,156.6h34.7l-1.7,9.9h-11.1l-4.9,27.9h-12.4l4.9-27.9h-11.1L598.7,156.6z"/>
		</g>
		<g>
			<path fill="#0C80C3" d="M382.5,193.7h35.1l1.8-8.6h-35.1L382.5,193.7z"/>
			<path fill="#5FB146" d="M420.5,171h-33.1l-1.8,8.6h33.1L420.5,171z"/>
			<path fill="#F69120" d="M388.5,165.5h35.1l1.8-8.6h-35.1L388.5,165.5z"/>
		</g>
	</g>
</g>
</svg>
